<?xml version="1.0" encoding="UTF-8" standalone="no"?>
<!-- Created with Inkscape (http://www.inkscape.org/) -->

<svg
   version="1.1"
   id="svg1"
   width="273.53775"
   height="101.73829"
   viewBox="0 0 273.53775 101.73829"
   sodipodi:docname="skinlab_logo_cropped.svg"
   inkscape:version="1.4.3 (0d15f75, 2025-12-25)"
   xmlns:inkscape="http://www.inkscape.org/namespaces/inkscape"
   xmlns:sodipodi="http://sodipodi.sourceforge.net/DTD/sodipodi-0.dtd"
   xmlns="http://www.w3.org/2000/svg"
   xmlns:svg="http://www.w3.org/2000/svg">
  <defs
     id="defs1">
    <clipPath
       clipPathUnits="userSpaceOnUse"
       id="clipPath1">
      <path
         d="M -3.3333333e-6,0 H 499.99998 V 499.99998 H -3.3333333e-6 Z"
         clip-rule="evenodd"
         id="path1" />
    </clipPath>
    <clipPath
       clipPathUnits="userSpaceOnUse"
       id="clipPath2">
      <path
         d="m -112.22221,305.99999 h 500 v -500 h -500 z"
         id="path2" />
    </clipPath>
    <clipPath
       clipPathUnits="userSpaceOnUse"
       id="clipPath3">
      <path
         d="M -3.3333333e-6,0 H 499.99998 V 499.99998 H -3.3333333e-6 Z"
         clip-rule="evenodd"
         id="path3" />
    </clipPath>
    <clipPath
       clipPathUnits="userSpaceOnUse"
       id="clipPath4">
      <path
         d="m -112.22221,305.99999 h 500 v -500 h -500 z"
         id="path4" />
    </clipPath>
    <clipPath
       clipPathUnits="userSpaceOnUse"
       id="clipPath5">
      <path
         d="M -171.53425,-265.70589 H 328.46573 V 234.29409 H -171.53425 Z"
         clip-rule="evenodd"
         id="path5" />
    </clipPath>
    <clipPath
       clipPathUnits="userSpaceOnUse"
       id="clipPath6">
      <path
         d="M -395.45612,-265.70589 H 104.54386 V 234.29409 H -395.45612 Z"
         clip-rule="evenodd"
         id="path6" />
    </clipPath>
    <clipPath
       clipPathUnits="userSpaceOnUse"
       id="clipPath7">
      <path
         d="m -112.22221,305.99999 h 500 v -500 h -500 z"
         id="path7" />
    </clipPath>
    <clipPath
       clipPathUnits="userSpaceOnUse"
       id="clipPath18">
      <path
         d="M 9.3333333e-6,225.55555 H 291.33335 V 0 H 9.3333333e-6 Z"
         id="path18" />
    </clipPath>
    <clipPath
       clipPathUnits="userSpaceOnUse"
       id="clipPath19">
      <path
         d="M 9.3333333e-6,225.55555 H 291.33335 V 0 H 9.3333333e-6 Z"
         id="path19" />
    </clipPath>
  </defs>
  <sodipodi:namedview
     id="namedview1"
     pagecolor="#ffffff"
     bordercolor="#000000"
     borderopacity="0.25"
     inkscape:showpageshadow="2"
     inkscape:pageopacity="0.0"
     inkscape:pagecheckerboard="0"
     inkscape:deskcolor="#d1d1d1"
     inkscape:zoom="3.5778325"
     inkscape:cx="136.81468"
     inkscape:cy="36.754096"
     inkscape:window-width="1920"
     inkscape:window-height="1009"
     inkscape:window-x="-8"
     inkscape:window-y="-8"
     inkscape:window-maximized="1"
     inkscape:current-layer="g12" />
  <g
     id="g1"
     inkscape:groupmode="layer"
     inkscape:label="1"
     transform="translate(-8.9648438,-9.050779)">
    <g
       id="g18">
      <g
         clip-path="url(#clipPath7)"
         id="g12">
        <path
           d="m 10.312962,-62.561358 v 43.937502 l 9.625,-8.5 11.078126,-9.796876 c 1.15625,-1.03125 1.921875,-1.960937 2.296875,-2.796875 0.375,-0.84375 -0.101563,-1.265625 -1.421875,-1.265625 v -0.78125 h 8.140625 v 0.78125 c -0.867188,0 -1.804688,0.230469 -2.8125,0.6875 -1.011719,0.460938 -1.9375,0.964844 -2.78125,1.515625 -0.835938,0.554688 -1.554688,1.089844 -2.15625,1.609375 -0.605469,0.523438 -0.964844,0.839844 -1.078125,0.953125 l -8.328126,7.359376 9.875001,16.734375 3.296875,5.5468754 c 1.039062,1.7812501 1.960937,3.1953127 2.765625,4.2343752 0.8125,1.0429688 1.453125,1.56250009 1.921875,1.56250009 V 0.00114472 H 30.500463 v -0.78125003 c 0.40625,0 0.304687,-0.87890629 -0.296875,-2.64062509 -0.605469,-1.7578126 -1.718751,-4.0234377 -3.343751,-6.7968756 l -8.578125,-14.5625 -7.96875,7.015625 v 10.3125004 c 0,1.4492188 0.07031,2.6054689 0.21875,3.4687502 0.144531,0.8671875 0.332031,1.5429688 0.5625,2.03125 0.226562,0.4921876 0.457031,0.8085938 0.6875,0.95312508 0.226562,0.14843751 0.40625,0.21875001 0.53125,0.21875001 V 0.00114472 H 2.3442114 v -0.78125003 c 0.1132812,0 0.2851562,-0.0703125 0.515625,-0.21875001 0.2265625,-0.14453128 0.4414063,-0.46093748 0.640625,-0.95312508 0.2070313,-0.4882812 0.3945313,-1.1640625 0.5625,-2.03125 0.1757813,-0.8632813 0.2656251,-2.0195314 0.2656251,-3.4687502 V -55.108233 c -0.2304688,-1.5 -0.5468751,-2.476562 -0.9531251,-2.9375 -0.40625,-0.46875 -0.6953125,-0.703125 -0.859375,-0.703125 l -0.34375,-0.78125 z m 33.281251,23.906251 8.140625,-3.109375 v 34.3125014 c 0,1.4492188 0.07031,2.6054689 0.21875,3.4687502 0.144532,0.8671875 0.332032,1.5429688 0.5625,2.03125 0.226563,0.4921876 0.457032,0.8085938 0.6875,0.95312508 0.226563,0.14843751 0.406251,0.21875001 0.531251,0.21875001 V 0.00114472 H 43.672338 v -0.78125003 c 0.175781,0 0.378906,-0.0703125 0.609375,-0.21875001 0.226563,-0.14453128 0.441406,-0.46093748 0.640625,-0.95312508 0.207031,-0.4882812 0.394531,-1.1640625 0.5625,-2.03125 0.175781,-0.8632813 0.265625,-2.0195314 0.265625,-3.4687502 V -34.233232 c -0.230469,-1.550781 -0.546875,-2.554687 -0.953125,-3.015625 -0.40625,-0.46875 -0.726562,-0.703125 -0.953125,-0.703125 z m 4.5,-10.125 c -1.15625,0 -2.125,-0.390625 -2.90625,-1.171875 -0.78125,-0.78125 -1.171875,-1.75 -1.171875,-2.90625 0,-1.156251 0.390625,-2.125001 1.171875,-2.906251 0.78125,-0.78125 1.75,-1.171875 2.90625,-1.171875 1.15625,0 2.125,0.390625 2.90625,1.171875 0.78125,0.78125 1.171875,1.75 1.171875,2.906251 0,1.15625 -0.390625,2.125 -1.171875,2.90625 -0.78125,0.78125 -1.75,1.171875 -2.90625,1.171875 z m 8.496094,7.015625 h 7.968751 v 22.437501 c 0.34375,-2.65625 0.816406,-5.050782 1.421875,-7.1875 0.613281,-2.132813 1.296875,-4.039063 2.046875,-5.718751 0.570312,-1.21875 1.234375,-2.398437 1.984375,-3.546875 0.75,-1.15625 1.628906,-2.207031 2.640625,-3.15625 1.007813,-0.957031 2.109375,-1.722656 3.296875,-2.296875 1.1875,-0.582031 2.503907,-0.875 3.953125,-0.875 2.363282,0 4.281251,0.492187 5.750001,1.46875 1.476562,0.980469 2.632812,2.25 3.46875,3.8125 0.84375,1.5625 1.421875,3.328125 1.734375,5.296875 0.320312,1.960938 0.484375,3.917969 0.484375,5.875001 v 18.2031254 c 0,1.4492188 0.06641,2.6054689 0.203125,3.4687502 0.144531,0.8671875 0.332031,1.5429688 0.5625,2.03125 0.238281,0.4921876 0.472656,0.8085938 0.703125,0.95312508 0.226562,0.14843751 0.398437,0.21875001 0.515625,0.21875001 V 0.00114472 H 83.277809 v -0.78125003 c 0.113281,0 0.285156,-0.0703125 0.515625,-0.21875001 0.226562,-0.14453128 0.441406,-0.46093748 0.640625,-0.95312508 0.207031,-0.4882812 0.394531,-1.1640625 0.5625,-2.03125 0.175781,-0.8632813 0.265625,-2.0195314 0.265625,-3.4687502 V -25.655106 c 0,-1.03125 -0.05859,-2.28125 -0.171875,-3.750001 -0.117188,-1.476562 -0.359375,-2.925781 -0.734375,-4.34375 -0.375,-1.414062 -0.929688,-2.703125 -1.656251,-3.859375 -0.71875,-1.15625 -1.683593,-1.9375 -2.890625,-2.34375 -1.210937,-0.40625 -2.390625,-0.390625 -3.546875,0.04687 -1.15625,0.4375 -2.214844,1.089844 -3.171875,1.953125 -0.949219,0.867188 -1.804687,1.851563 -2.5625,2.953125 -0.75,1.09375 -1.355469,2.132813 -1.8125,3.109375 -1.273438,2.773438 -2.28125,6.167969 -3.03125,10.187501 -0.75,4.011719 -1.125,8.761719 -1.125,14.2500004 0,1.4492188 0.07031,2.6054689 0.21875,3.4687502 0.144531,0.8671875 0.332031,1.5429688 0.5625,2.03125 0.226562,0.4921876 0.457031,0.8085938 0.6875,0.95312508 0.226562,0.14843751 0.398437,0.21875001 0.515625,0.21875001 v 0.78125003 h -9.953126 v -0.78125003 c 0.113282,0 0.285157,-0.0703125 0.515625,-0.21875001 0.226563,-0.14453128 0.441407,-0.46093748 0.640625,-0.95312508 0.207032,-0.4882812 0.394532,-1.1640625 0.5625,-2.03125 0.175782,-0.8632813 0.265625,-2.0195314 0.265625,-3.4687502 V -34.311357 c 0,-1.382812 -0.08984,-2.523437 -0.265625,-3.421875 -0.167968,-0.894531 -0.355468,-1.570312 -0.5625,-2.03125 -0.199218,-0.46875 -0.414062,-0.785156 -0.640625,-0.953125 -0.230468,-0.175781 -0.402343,-0.265625 -0.515625,-0.265625 z m 50.257813,-18.203126 c -0.11719,0 -0.29297,0.08984 -0.53125,0.265625 -0.23047,0.167969 -0.46094,0.484375 -0.6875,0.953125 -0.23047,0.460938 -0.41797,1.125 -0.5625,2 -0.14844,0.867188 -0.21875,2.015625 -0.21875,3.453126 v 52.51562669 h 9.79688 c 2.13281,-0.22656249 4.08203,-0.54687499 5.84375,-0.95312509 1.75781,-0.40625 3.375,-0.8789062 4.84375,-1.421875 1.47656,-0.5507813 2.86719,-1.1718751 4.17187,-1.8593751 1.30078,-0.6953125 2.61328,-1.453125 3.9375,-2.2656251 h 0.78125 V 0.09489473 H 126.77 L 124.52,0.00114472 H 96.613747 v -0.78125003 c 0.113281,0 0.285156,-0.0703125 0.515625,-0.21875001 0.238281,-0.14453128 0.457031,-0.46093748 0.65625,-0.95312508 0.207031,-0.4882812 0.394531,-1.1640625 0.5625,-2.03125 0.175781,-0.8632813 0.265625,-2.0195314 0.265625,-3.4687502 V -53.295732 c 0,-1.437501 -0.08984,-2.585938 -0.265625,-3.453126 -0.167969,-0.875 -0.355469,-1.539062 -0.5625,-2 -0.199219,-0.46875 -0.417969,-0.785156 -0.65625,-0.953125 -0.230469,-0.175781 -0.402344,-0.265625 -0.515625,-0.265625 v -0.78125 h 10.234373 z m 70.27344,59.96875272 h -7.96875 V -24.951981 c 0,-1.5625 -0.0742,-3.296875 -0.21875,-5.203126 -0.14844,-1.90625 -0.51172,-3.695312 -1.09375,-5.375 -0.57422,-1.675781 -1.45312,-3.078125 -2.64062,-4.203125 -1.17969,-1.125 -2.8086,-1.6875 -4.89063,-1.6875 -2.07422,0 -3.875,0.304688 -5.40625,0.90625 -1.53125,0.605469 -2.76172,1.3125 -3.6875,2.125 -0.92969,0.8125 -1.53906,1.625 -1.82812,2.4375 -0.28125,0.804688 -0.21875,1.433594 0.1875,1.890625 0.22656,0.292969 0.61328,0.511719 1.15625,0.65625 0.55078,0.148438 1.17187,0.277344 1.85937,0.390625 0.69531,0.117188 1.4375,0.230469 2.21875,0.34375 0.78125,0.117188 1.51953,0.320313 2.21875,0.609375 1.90625,0.75 3.42188,1.949219 4.54688,3.593751 1.125,1.648437 1.91406,3.480468 2.375,5.5 0.46875,2.023437 0.64062,4.105469 0.51562,6.25 -0.11719,2.136719 -0.51562,4.011719 -1.20312,5.625 -1.33594,3.3554691 -3.30469,6.132813 -5.90625,8.3281256 -2.59375,2.1875001 -5.42188,3.22265639 -8.48438,3.10937514 -2.88672,-0.11718751 -5.22656,-0.90625004 -7.01562,-2.37500014 -1.79297,-1.4765625 -3.02344,-3.3007814 -3.6875,-5.4687502 -0.66797,-2.1640626 -0.74219,-4.5039064 -0.21875,-7.0156254 0.51953,-2.507812 1.63281,-4.847656 3.34375,-7.015625 1.70703,-2.164063 4.04687,-4 7.01562,-5.5 2.97656,-1.507813 6.60156,-2.347657 10.875,-2.515626 0.11328,-0.0625 0.31641,-0.09375 0.60938,-0.09375 -0.86719,-0.75 -1.875,-1.351562 -3.03125,-1.8125 -1.04297,-0.40625 -2.17188,-0.664062 -3.39063,-0.78125 -1.21094,-0.113281 -2.35156,-0.140625 -3.42187,-0.07813 -1.0625,0.05469 -2.01563,0.136719 -2.85938,0.25 -0.83594,0.117188 -1.36719,0.203125 -1.59375,0.265625 -0.17969,-0.875 0.0664,-1.898437 0.73438,-3.078125 0.66406,-1.1875 1.64453,-2.3125 2.9375,-3.375 1.30078,-1.070312 2.89062,-1.96875 4.76562,-2.6875 1.88281,-0.726563 4.00781,-1.09375 6.375,-1.09375 2.76953,0 5.10938,0.4375 7.01563,1.3125 1.90625,0.867188 3.4375,2.046875 4.59375,3.546875 1.15625,1.5 1.97656,3.308594 2.46875,5.421875 0.5,2.105469 0.75,4.371094 0.75,6.796876 v 17.5000004 c 0,1.4492188 0.0664,2.6054689 0.20312,3.4687502 0.14453,0.8671875 0.33203,1.5429688 0.5625,2.03125 0.23828,0.4921876 0.47266,0.8085938 0.70313,0.95312508 0.22656,0.14843751 0.39843,0.21875001 0.51562,0.21875001 z M 160.40281,-28.936356 c -2.3125,0 -4.49609,0.292968 -6.54687,0.875 -2.05469,0.574218 -3.84375,1.464843 -5.375,2.671875 -1.53125,1.210937 -2.7461,2.742187 -3.64063,4.59375 -0.89844,1.84375 -1.34375,4.011719 -1.34375,6.5 0,1.210938 0.12891,2.421875 0.39063,3.640625 0.25781,1.2109378 0.6914,2.3359379 1.29687,3.3750004 0.61328,1.0429688 1.37891,1.9375001 2.29688,2.6875001 0.92578,0.7500001 2.05468,1.2421876 3.39062,1.4687501 1.38281,0.2929688 2.67969,0.234375 3.89063,-0.171875 1.21875,-0.40625 2.34375,-0.9921876 3.375,-1.7656251 1.03906,-0.78125 1.95312,-1.7187501 2.73437,-2.8125001 0.78125,-1.1015626 1.40625,-2.2343754 1.875,-3.3906254 0.50781,-1.382812 0.86328,-2.867187 1.0625,-4.453125 0.20703,-1.59375 0.22266,-3.179688 0.0469,-4.765625 -0.16797,-1.59375 -0.54297,-3.109375 -1.125,-4.546875 -0.57422,-1.445313 -1.35157,-2.75 -2.32813,-3.90625 z m 27.72657,10.140625 c 0.40625,-2.78125 0.96875,-5.296875 1.6875,-7.546875 0.71875,-2.25 1.57031,-4.300782 2.5625,-6.156251 1.84375,-3.40625 3.95312,-5.859375 6.32812,-7.359375 0.22656,-0.175781 0.57031,-0.378906 1.03125,-0.609375 1.5,-0.863281 3.08594,-1.425781 4.76563,-1.6875 1.67578,-0.257813 3.35156,-0.242188 5.03125,0.04687 3,0.523437 5.46875,1.507813 7.40625,2.953125 1.9375,1.4375 3.41015,3.183594 4.42187,5.234375 1.00781,2.054688 1.59766,4.277344 1.76563,6.671876 0.17578,2.398437 -0.0273,4.824219 -0.60938,7.28125 -0.57422,2.449219 -1.46875,4.828125 -2.6875,7.140625 -1.21094,2.3125 -2.67969,4.3671879 -4.40625,6.1562504 -2.13672,2.1992189 -4.65234,3.9921877 -7.54687,5.3750003 -2.88672,1.38281252 -6.0625,2.04687505 -9.53125,1.98437505 -3,0.0625 -6.40625,-0.63281253 -10.21875,-2.07812505 l -0.51563,-0.25 c -1.33594,-0.4687501 -2.46484,-0.5234376 -3.39062,-0.1718751 -0.91797,0.3437501 -1.375,0.94921884 -1.375,1.81250012 h -0.78125 V -55.201983 c -0.17969,-1.5 -0.46875,-2.476562 -0.875,-2.9375 -0.40625,-0.46875 -0.72657,-0.703125 -0.95313,-0.703125 l -0.25,-0.78125 8.14063,-3.03125 z m 0,16.7187506 c 1.84375,0.7500001 3.61718,1.28906259 5.32812,1.6093751 1.70703,0.31250001 3.36719,0.50000002 4.98438,0.56250003 3.0625,-0.12500001 5.70312,-0.93750004 7.92187,-2.43750013 2.22656,-1.5 4.09375,-3.5781251 5.59375,-6.2343752 1.03906,-1.9062504 1.86328,-4.2031254 2.46875,-6.8906254 0.60156,-2.6875 0.90625,-5.414063 0.90625,-8.1875 0,-2.769532 -0.375,-5.410157 -1.125,-7.921876 -0.75,-2.519531 -1.93359,-4.585937 -3.54687,-6.203125 -1.5,-1.5 -3.14844,-2.476562 -4.9375,-2.9375 -1.79297,-0.46875 -3.67188,-0.210937 -5.64063,0.765625 -2.1875,1.273438 -4.03906,3.0625 -5.54687,5.375 -1.5,2.199219 -2.69922,4.625 -3.59375,7.281251 -0.89844,2.65625 -1.57422,5.3125 -2.03125,7.96875 -0.23047,1.273437 -0.40235,2.542969 -0.51563,3.8125 -0.17969,1.5625 -0.26562,3.152344 -0.26562,4.765625 z m 0,0"
           style="fill:#292929;fill-opacity:1;fill-rule:nonzero;stroke:none"
           aria-label="kinLab"
           transform="translate(59.312039,71.705887)"
           clip-path="url(#clipPath5)"
           id="path11" />
        <path
           d=""
           style="fill:#292929;fill-opacity:1;fill-rule:nonzero;stroke:none"
           aria-label=" "
           transform="translate(283.23391,71.705887)"
           clip-path="url(#clipPath6)"
           id="path12" />
      </g>
      <path
         d="m 33.933595,72.394532 c -2.949219,0 -5.750001,-0.433594 -8.406251,-1.296875 C 22.871094,70.234375 20.457032,69.125 18.292969,67.769532 16.125,66.40625 14.246094,64.917969 12.652344,63.300781 11.066406,61.6875 9.8398439,60.128906 8.9648438,58.628906 l 2.0781252,-7.71875 h 0.703125 c 1.789062,3.875 3.84375,7.339844 6.15625,10.390625 0.976562,1.335938 2.054687,2.625 3.234375,3.875 1.1875,1.242188 2.441406,2.339844 3.765625,3.296876 1.332032,0.949218 2.75,1.726562 4.25,2.328125 1.507813,0.605468 3.101563,0.90625 4.781251,0.90625 0.914062,0 2.15625,-0.171875 3.71875,-0.515625 1.5625,-0.351563 3.09375,-0.945313 4.59375,-1.78125 1.5,-0.832032 2.78125,-1.957032 3.84375,-3.375001 1.070313,-1.414062 1.609375,-3.164062 1.609375,-5.25 0,-2.070312 -0.507812,-3.972656 -1.515625,-5.703125 -1.011719,-1.738281 -2.3125,-3.300781 -3.90625,-4.6875 -1.585938,-1.382813 -3.386719,-2.613282 -5.40625,-3.6875 -2.023438,-1.070313 -4.011719,-1.953125 -5.968751,-2.640625 -2.261718,-0.8125 -4.433593,-1.750001 -6.515625,-2.812501 -2.074219,-1.070312 -3.921875,-2.34375 -5.546875,-3.8125 -1.617188,-1.476562 -2.902344,-3.179687 -3.859375,-5.109375 -0.949219,-1.9375 -1.421875,-4.117188 -1.421875,-6.546875 0,-2.375 0.460937,-4.523438 1.390625,-6.453125 0.925781,-1.937501 2.179687,-3.582032 3.765625,-4.937501 1.59375,-1.363281 3.441406,-2.421875 5.546875,-3.171875 2.113282,-0.75 4.351563,-1.125 6.71875,-1.125 2.945313,0 5.503907,0.304688 7.671876,0.90625 2.164062,0.605469 4.039062,1.429688 5.625,2.46875 1.59375,1.042969 2.9375,2.246094 4.03125,3.609375 1.101563,1.355469 2.085938,2.781251 2.953125,4.281251 l -2.078125,7.625 h -0.78125 c -0.980469,-3.351563 -2.25,-6.359375 -3.8125,-9.015625 -0.699219,-1.09375 -1.480469,-2.187501 -2.34375,-3.281251 -0.867188,-1.101562 -1.859375,-2.085937 -2.984375,-2.953125 -1.125,-0.863281 -2.386719,-1.554687 -3.78125,-2.078125 -1.386719,-0.519531 -2.886719,-0.78125 -4.500001,-0.78125 -0.980468,0 -2.25,0.171875 -3.8125,0.515625 -1.5625,0.34375 -3.085937,0.9375 -4.5625,1.78125 -1.46875,0.835938 -2.75,1.960938 -3.84375,3.375 -1.09375,1.417969 -1.640625,3.167969 -1.640625,5.250001 0,2.074218 0.503906,3.980469 1.515625,5.71875 1.007812,1.730469 2.304688,3.289063 3.890625,4.671875 1.59375,1.386719 3.398438,2.601563 5.421875,3.640625 2.019532,1.042969 4.039063,1.90625 6.062501,2.59375 2.25,0.8125 4.414062,1.773438 6.5,2.875 2.082031,1.09375 3.929688,2.382813 5.546875,3.859376 1.613281,1.46875 2.894531,3.15625 3.84375,5.0625 0.957032,1.90625 1.4375,4.074219 1.4375,6.5 0,2.367188 -0.464843,4.515625 -1.390625,6.453125 -0.917969,1.9375 -2.1875,3.585938 -3.8125,4.937501 -1.617187,1.355468 -3.480469,2.40625 -5.59375,3.15625 -2.105469,0.75 -4.308594,1.125 -6.609375,1.125 z m 0,0"
         style="fill:#292929;fill-opacity:1;fill-rule:nonzero;stroke:none"
         aria-label="S"
         id="path13" />
      <path
         d="m 93.808594,92.789066 c 0.34375,0.01172 0.628907,0.132813 0.859376,0.359375 0.238281,0.230469 0.359375,0.511719 0.359375,0.84375 v 15.328129 c 0,0.34375 -0.117188,0.63672 -0.34375,0.875 -0.230469,0.23047 -0.531251,0.34375 -0.906251,0.34375 -0.367187,0 -0.667968,-0.11328 -0.90625,-0.34375 -0.242187,-0.22657 -0.359375,-0.51953 -0.359375,-0.875 V 97.601566 l -4.90625,7.437504 c -0.117187,0.15625 -0.261719,0.28906 -0.4375,0.39062 -0.179687,0.0937 -0.359375,0.13672 -0.546875,0.125 -0.167969,0.0117 -0.34375,-0.0312 -0.53125,-0.125 -0.179687,-0.10156 -0.324219,-0.23437 -0.4375,-0.39062 l -4.9375,-7.671879 v 11.953129 c 0,0.35547 -0.105469,0.64843 -0.3125,0.875 -0.210938,0.23047 -0.496094,0.34375 -0.859375,0.34375 -0.335938,0 -0.605469,-0.11328 -0.8125,-0.34375 -0.210938,-0.22657 -0.3125,-0.51953 -0.3125,-0.875 V 93.992191 c 0,-0.3125 0.113281,-0.585937 0.34375,-0.828125 0.238281,-0.25 0.535156,-0.375 0.890625,-0.375 0.195312,0 0.394531,0.05469 0.59375,0.15625 0.195312,0.09375 0.351562,0.226563 0.46875,0.390625 l 6,9.093749 6.078125,-9.093749 c 0.269532,-0.363281 0.609375,-0.546875 1.015625,-0.546875 z M 116.5,108.21094 c 0.36328,0 0.65625,0.1211 0.875,0.35938 0.22656,0.23047 0.34375,0.50781 0.34375,0.82812 0,0.33594 -0.11719,0.60938 -0.34375,0.82813 -0.21875,0.21093 -0.51172,0.3125 -0.875,0.3125 h -8.8125 c -0.33594,0 -0.62109,-0.11328 -0.85937,-0.34375 -0.23047,-0.23828 -0.34375,-0.53125 -0.34375,-0.875 V 94.023441 c 0,-0.332031 0.11328,-0.617187 0.34375,-0.859375 0.23828,-0.238281 0.52343,-0.359375 0.85937,-0.359375 H 116.5 c 0.36328,0 0.65625,0.109375 0.875,0.328125 0.22656,0.21875 0.34375,0.507813 0.34375,0.859375 0,0.34375 -0.11719,0.621094 -0.34375,0.828125 -0.21875,0.210938 -0.51172,0.3125 -0.875,0.3125 h -7.51562 v 5.171874 h 6.39062 c 0.35156,0 0.64063,0.10938 0.85938,0.32813 0.22656,0.21875 0.34375,0.5 0.34375,0.84375 0,0.35547 -0.11719,0.63672 -0.34375,0.84375 -0.21875,0.19922 -0.50782,0.29687 -0.85938,0.29687 h -6.39062 v 5.59375 z m 19.10547,-15.406249 c 1.58203,0 2.94141,0.402344 4.07813,1.203125 1.13281,0.792969 1.98828,1.859375 2.5625,3.203125 0.57031,1.335938 0.85937,2.824219 0.85937,4.468749 0,1.65625 -0.28906,3.15625 -0.85937,4.5 -0.57422,1.33594 -1.42969,2.39844 -2.5625,3.1875 -1.13672,0.78125 -2.4961,1.17188 -4.07813,1.17188 h -6.23437 c -0.33594,0 -0.6211,-0.11328 -0.85938,-0.34375 -0.23047,-0.23828 -0.34375,-0.53125 -0.34375,-0.875 V 94.023441 c 0,-0.332031 0.11328,-0.617187 0.34375,-0.859375 0.23828,-0.238281 0.52344,-0.359375 0.85938,-0.359375 z m -0.25,15.406249 c 1.71875,0 3.00781,-0.60937 3.875,-1.82812 0.86328,-1.22657 1.29688,-2.79688 1.29688,-4.70313 0,-1.89453 -0.4375,-3.45703 -1.3125,-4.687499 -0.86719,-1.238281 -2.15235,-1.859375 -3.85938,-1.859375 h -4.6875 v 13.078124 z m 20.71875,1.09375 c 0,0.35547 -0.13281,0.65235 -0.39062,0.89063 -0.25,0.23047 -0.54297,0.34375 -0.875,0.34375 -0.375,0 -0.67969,-0.11328 -0.90625,-0.34375 -0.21875,-0.23828 -0.32813,-0.53516 -0.32813,-0.89063 V 94.023441 c 0,-0.332031 0.11328,-0.617187 0.34375,-0.859375 0.23828,-0.238281 0.54688,-0.359375 0.92188,-0.359375 0.33203,0 0.61719,0.121094 0.85937,0.359375 0.25,0.242188 0.375,0.527344 0.375,0.859375 z m 24.08203,-15.453124 c 0.40625,0.21875 0.60938,0.558594 0.60938,1.015625 0,0.304688 -0.10156,0.578125 -0.29688,0.828125 -0.21093,0.273438 -0.49218,0.40625 -0.84375,0.40625 -0.23046,0 -0.45312,-0.05469 -0.67187,-0.171875 -1.05469,-0.59375 -2.1875,-0.890625 -3.40625,-0.890625 -1.26172,0 -2.38281,0.28125 -3.35938,0.84375 -0.96875,0.554688 -1.72656,1.335938 -2.26562,2.34375 -0.53125,1 -0.79688,2.152344 -0.79688,3.453124 0,1.39844 0.27344,2.60547 0.82813,3.625 0.5625,1.01172 1.33203,1.78125 2.3125,2.3125 0.97656,0.53125 2.07031,0.79688 3.28125,0.79688 1.25,0 2.38281,-0.30469 3.40625,-0.92188 0.19531,-0.0937 0.41406,-0.14062 0.65625,-0.14062 0.36328,0 0.65625,0.14062 0.875,0.42187 0.20703,0.26172 0.3125,0.53125 0.3125,0.8125 0,0.21094 -0.0586,0.40235 -0.17188,0.57813 -0.10546,0.17968 -0.25,0.3125 -0.4375,0.40625 -0.65625,0.375 -1.39843,0.67187 -2.21875,0.89062 -0.8125,0.21875 -1.62109,0.32813 -2.42187,0.32813 -1.63672,0 -3.14063,-0.35938 -4.51563,-1.07813 -1.375,-0.72656 -2.47656,-1.78515 -3.29687,-3.17187 -0.8125,-1.38282 -1.21875,-3.00391 -1.21875,-4.85938 0,-1.70703 0.39062,-3.249999 1.17187,-4.624999 0.78125,-1.375 1.85938,-2.453125 3.23438,-3.234375 1.38281,-0.789062 2.92578,-1.1875 4.625,-1.1875 1.64453,0 3.17969,0.40625 4.60937,1.21875 z m 24.40235,15.109374 c 0.0508,0.15625 0.0781,0.32031 0.0781,0.48438 0,0.34375 -0.11718,0.625 -0.34375,0.84375 -0.23046,0.21875 -0.49609,0.32812 -0.79687,0.32812 -0.24219,0 -0.46094,-0.0742 -0.65625,-0.21875 -0.1875,-0.14453 -0.34375,-0.34375 -0.46875,-0.59375 l -1.5625,-3.71875 h -7.82813 l -1.54687,3.75 c -0.0859,0.25 -0.22656,0.44531 -0.42188,0.57813 -0.1875,0.13281 -0.40234,0.20312 -0.64062,0.20312 -0.35547,0 -0.625,-0.0937 -0.8125,-0.28125 -0.1875,-0.1875 -0.28125,-0.4414 -0.28125,-0.76562 0,-0.0625 0.0156,-0.19532 0.0469,-0.40625 l 6.46875,-15.640629 c 0.11328,-0.269531 0.27344,-0.476562 0.48438,-0.625 0.21875,-0.144531 0.46094,-0.203125 0.73437,-0.171875 0.25,0 0.47266,0.07031 0.67188,0.203125 0.20703,0.136719 0.35156,0.335938 0.4375,0.59375 z m -10.625,-5.1875 h 5.90625 l -2.96875,-7.093749 z m 30.27344,4.40625 c 0.35156,0 0.64453,0.10938 0.875,0.32813 0.22656,0.21875 0.34375,0.50781 0.34375,0.85937 0,0.34375 -0.11719,0.625 -0.34375,0.84375 -0.23047,0.21875 -0.52344,0.32813 -0.875,0.32813 h -8.5625 c -0.35547,0 -0.64844,-0.11328 -0.875,-0.34375 -0.21875,-0.23828 -0.32813,-0.53125 -0.32813,-0.875 V 94.023441 c 0,-0.332031 0.11328,-0.617187 0.34375,-0.859375 0.23828,-0.238281 0.54688,-0.359375 0.92188,-0.359375 0.33203,0 0.61718,0.121094 0.85937,0.359375 0.25,0.242188 0.375,0.527344 0.375,0.859375 v 14.156249 z m 0,0"
         style="fill:#292929;fill-opacity:1;fill-rule:nonzero;stroke:none"
         aria-label="MEDICAL"
         id="path14" />
    </g>
  </g>
</svg>
